<svg width="65" height="35" viewBox="0 0 65 35" fill="none" xmlns="http://www.w3.org/2000/svg">
<path d="M4.36488 12.665H0.15625V15.0031H29.4608C29.8349 11.3868 31.695 8.71614 32.5783 7.83285C34.1994 9.20455 35.436 13.1846 35.8517 15.0031H64.8445V12.665H61.2594C53.9332 -4.79305 37.8781 -0.740294 32.5783 4.71534C18.8613 -6.66356 5.45601 5.18297 4.36488 12.665Z" fill="#62C4BF"/>
<path d="M27.5906 12.665H6.3916C11.8472 -2.29906 28.2141 1.59783 31.0199 6.42996C29.5235 7.92636 28.1102 11.2101 27.5906 12.665Z" fill="white" stroke="white" stroke-width="0.311751"/>
<path d="M37.4101 12.665C36.4125 8.67457 34.8122 6.74171 34.1367 6.27409C45.8274 -3.23431 57.0504 5.65058 58.9209 12.665H37.4101Z" fill="white" stroke="white" stroke-width="0.311751"/>
<path d="M60.7914 22.1734H65V19.8353L35.6954 19.8353C35.3213 23.4516 33.4612 26.1222 32.5779 27.0055C30.9568 25.6338 29.7202 21.6538 29.3046 19.8353L0.311752 19.8353V22.1734H3.89688C11.223 39.6314 27.2782 35.5787 32.5779 30.123C46.295 41.5019 59.7002 29.6554 60.7914 22.1734Z" fill="#62C4BF"/>
<path d="M37.5656 22.1734H58.7646C53.309 37.1374 36.9421 33.2406 34.1364 28.4084C35.6328 26.912 37.046 23.6282 37.5656 22.1734Z" fill="white" stroke="white" stroke-width="0.311751"/>
<path d="M27.7452 22.1734C28.7428 26.1638 30.3431 28.0966 31.0186 28.5643C19.3279 38.0727 8.10489 29.1878 6.23438 22.1734L27.7452 22.1734Z" fill="white" stroke="white" stroke-width="0.311751"/>
<ellipse cx="1.09113" cy="17.3413" rx="1.09113" ry="0.935252" fill="#62C4BF"/>
<ellipse cx="32.5775" cy="17.3413" rx="1.09113" ry="0.935252" fill="#62C4BF"/>
<ellipse cx="63.7532" cy="17.3413" rx="1.09113" ry="0.935252" fill="#62C4BF"/>
<path d="M31.7985 17.0295H2.02637V17.653L31.7985 17.8089V17.0295Z" fill="#62C4BF"/>
<path d="M63.2859 17.0295H33.5137V17.653L63.2859 17.8089V17.0295Z" fill="#62C4BF"/>
</svg>
