<svg width="17" height="17" viewBox="0 0 17 17" fill="none" xmlns="http://www.w3.org/2000/svg">
<path d="M6.83448 4.13289e-08C8.13358 -0.000142788 9.40582 0.369921 10.5022 1.06684C11.5985 1.76376 12.4735 2.75867 13.0248 3.93502C13.576 5.11137 13.7806 6.42044 13.6146 7.70888C13.4485 8.99733 12.9188 10.2118 12.0874 11.21L16.8017 15.9243C16.8835 16.0002 16.9433 16.0969 16.9748 16.2039C17.0063 16.311 17.0083 16.4246 16.9807 16.5328C16.953 16.6409 16.8967 16.7396 16.8177 16.8184C16.7386 16.8972 16.6398 16.9533 16.5316 16.9807C16.4236 17.0083 16.3101 17.0063 16.2031 16.9749C16.0961 16.9436 15.9995 16.8841 15.9235 16.8025L11.2091 12.0882C10.3655 12.7906 9.36519 13.2795 8.29271 13.5135C7.22022 13.7476 6.10715 13.7199 5.04763 13.4328C3.98812 13.1457 3.01334 12.6076 2.20574 11.8641C1.39814 11.1206 0.78149 10.1936 0.407942 9.16138C0.0343939 8.12917 -0.0850601 7.02218 0.0596845 5.93405C0.204429 4.84591 0.609115 3.80864 1.23951 2.90998C1.8699 2.01132 2.70746 1.2777 3.68134 0.771184C4.65521 0.264665 5.73675 0.000144969 6.83448 4.13289e-08ZM1.24189 6.83535C1.24189 7.56977 1.38655 8.29701 1.6676 8.97553C1.94866 9.65405 2.3606 10.2706 2.87992 10.7899C3.39924 11.3092 4.01576 11.7211 4.69429 12.0022C5.37281 12.2833 6.10005 12.4279 6.83448 12.4279C7.5689 12.4279 8.29614 12.2833 8.97466 12.0022C9.65319 11.7211 10.2697 11.3092 10.789 10.7899C11.3083 10.2706 11.7203 9.65405 12.0013 8.97553C12.2824 8.29701 12.4271 7.56977 12.4271 6.83535C12.4271 5.35211 11.8378 3.92962 10.789 2.88081C9.74022 1.83201 8.31772 1.24279 6.83448 1.24279C5.35123 1.24279 3.92874 1.83201 2.87992 2.88081C1.83111 3.92962 1.24189 5.35211 1.24189 6.83535Z" fill="#AEAEAE"/>
</svg>
