<svg width="9" height="16" viewBox="0 0 9 16" fill="none" xmlns="http://www.w3.org/2000/svg">
<path fill-rule="evenodd" clip-rule="evenodd" d="M8.6564 6.96817C8.87641 7.18824 9 7.48668 9 7.79786C9 8.10905 8.87641 8.40749 8.6564 8.62756L2.01766 15.2663C1.90941 15.3784 1.77991 15.4678 1.63673 15.5293C1.49356 15.5908 1.33956 15.6232 1.18374 15.6245C1.02792 15.6259 0.873388 15.5962 0.729164 15.5372C0.584939 15.4782 0.45391 15.391 0.343723 15.2808C0.233536 15.1707 0.146396 15.0396 0.0873895 14.8954C0.0283827 14.7512 -0.00130975 14.5967 4.43096e-05 14.4408C0.00139836 14.285 0.0337721 14.131 0.0952764 13.9878C0.156781 13.8447 0.246183 13.7152 0.358269 13.6069L6.16732 7.79786L0.358269 1.98882C0.144498 1.76749 0.0262117 1.47105 0.0288856 1.16335C0.0315594 0.855647 0.15498 0.561308 0.372564 0.343723C0.590149 0.126138 0.884489 0.00271819 1.19219 4.43631e-05C1.49989 -0.00262946 1.79633 0.115657 2.01766 0.329428L8.6564 6.96817Z" fill="#8B7C7C"/>
</svg>
